<?xml version="1.0" encoding="utf-8"?>
<!-- Generator: Adobe Illustrator 15.1.0, SVG Export Plug-In  -->
<!DOCTYPE svg PUBLIC "-//W3C//DTD SVG 1.0//EN" "http://www.w3.org/TR/2001/REC-SVG-20010904/DTD/svg10.dtd" [
	<!ENTITY ns_flows "http://ns.adobe.com/Flows/1.0/">
]>
<svg version="1.0"
	 xmlns="http://www.w3.org/2000/svg" xmlns:xlink="http://www.w3.org/1999/xlink" xmlns:a="http://ns.adobe.com/AdobeSVGViewerExtensions/3.0/"
	 x="0px" y="0px" width="300px" height="190px" viewBox="-2.202 -3.377 300 190"
	 overflow="visible" enable-background="new -2.202 -3.377 300 190" xml:space="preserve">
<defs>
</defs>
<g>
	<path fill="#FFFFFF" d="M293.396,59.667h-35.555l-0.562-0.889h-0.6l-1.024,1.151l-0.689-1.114h-0.648l-0.911,1.129l-0.769-1.129
		h-0.636l-0.85,1.016l-0.93-1.01h-0.686V41.037l0.777-0.92l0.825,0.959h0.698l0.727-0.959l0.917,0.959h0.663l0.67-0.959l0.933,0.959
		h0.792l0.529-0.855h35.49c1.99,5.684-1.148,4.636-0.274,9.286c1.917,0.231,2.733,0.494,2.733,0.494l-4.944,0.786l2.616,0.7
		C293.909,54.565,291.781,55.985,293.396,59.667"/>
	<path fill="none" stroke="#231F20" stroke-width="0.7087" stroke-linecap="round" stroke-linejoin="round" d="M293.396,59.667
		h-35.555l-0.562-0.889h-0.6l-1.024,1.151l-0.689-1.114h-0.648l-0.911,1.129l-0.769-1.129h-0.636l-0.85,1.016l-0.93-1.01h-0.686
		V41.037l0.777-0.92l0.825,0.959h0.698l0.727-0.959l0.917,0.959h0.663l0.67-0.959l0.933,0.959h0.792l0.529-0.855h35.49
		c1.99,5.684-1.148,4.636-0.274,9.286c1.917,0.231,2.733,0.494,2.733,0.494l-4.944,0.786l2.616,0.7
		C293.909,54.565,291.781,55.985,293.396,59.667z"/>
	<line fill="#FFFFFF" x1="257.068" y1="40.379" x2="257.906" y2="59.654"/>
	
		<line fill="none" stroke="#231F20" stroke-width="0.7087" stroke-linecap="round" stroke-linejoin="round" x1="257.068" y1="40.379" x2="257.906" y2="59.654"/>
	<line fill="#FFFFFF" x1="250.314" y1="40.117" x2="251.152" y2="59.654"/>
	
		<line fill="none" stroke="#231F20" stroke-width="0.7087" stroke-linecap="round" stroke-linejoin="round" x1="250.314" y1="40.117" x2="251.152" y2="59.654"/>
	<line fill="#FFFFFF" x1="252.564" y1="40.117" x2="253.406" y2="59.654"/>
	
		<line fill="none" stroke="#231F20" stroke-width="0.7087" stroke-linecap="round" stroke-linejoin="round" x1="252.564" y1="40.117" x2="253.406" y2="59.654"/>
	<line fill="#FFFFFF" x1="254.818" y1="40.117" x2="255.655" y2="59.654"/>
	
		<line fill="none" stroke="#231F20" stroke-width="0.7087" stroke-linecap="round" stroke-linejoin="round" x1="254.818" y1="40.117" x2="255.655" y2="59.654"/>
	<line fill="#FFFFFF" x1="255.939" y1="41.183" x2="256.781" y2="58.818"/>
	
		<line fill="none" stroke="#231F20" stroke-width="0.7087" stroke-linecap="round" stroke-linejoin="round" x1="255.939" y1="41.183" x2="256.781" y2="58.818"/>
	<line fill="#FFFFFF" x1="253.693" y1="41.183" x2="254.53" y2="58.818"/>
	
		<line fill="none" stroke="#231F20" stroke-width="0.7087" stroke-linecap="round" stroke-linejoin="round" x1="253.693" y1="41.183" x2="254.53" y2="58.818"/>
	<line fill="#FFFFFF" x1="251.439" y1="41.183" x2="252.28" y2="58.818"/>
	
		<line fill="none" stroke="#231F20" stroke-width="0.7087" stroke-linecap="round" stroke-linejoin="round" x1="251.439" y1="41.183" x2="252.28" y2="58.818"/>
	<path fill="#FFFFFF" d="M147.295,40.395h34.545l0.562,0.886h0.6l1.024-1.148l0.691,1.115h0.648l0.911-1.131l0.767,1.131h0.633
		l0.853-1.019l0.93,1.012h0.686v17.783l-0.776,0.92l-0.826-0.957h-0.697l-0.728,0.957l-0.917-0.957h-0.663l-0.677,0.957
		l-0.926-0.957h-0.788l-0.532,0.853h-34.479c-1.99-5.68,1.149-4.632,0.275-9.285c-1.92-0.235-2.733-0.495-2.733-0.495l4.944-0.786
		l-2.618-0.696C146.783,45.495,148.916,44.076,147.295,40.395"/>
	<path fill="none" stroke="#231F20" stroke-width="0.7087" stroke-linecap="round" stroke-linejoin="round" d="M147.295,40.395
		h34.545l0.562,0.886h0.6l1.024-1.148l0.691,1.115h0.648l0.911-1.131l0.767,1.131h0.633l0.853-1.019l0.93,1.012h0.686v17.783
		l-0.776,0.92l-0.826-0.957h-0.697l-0.728,0.957l-0.917-0.957h-0.663l-0.677,0.957l-0.926-0.957h-0.788l-0.532,0.853h-34.479
		c-1.99-5.68,1.149-4.632,0.275-9.285c-1.92-0.235-2.733-0.495-2.733-0.495l4.944-0.786l-2.618-0.696
		C146.783,45.495,148.916,44.076,147.295,40.395z"/>
	<line fill="#FFFFFF" x1="182.614" y1="59.684" x2="181.775" y2="40.407"/>
	
		<line fill="none" stroke="#231F20" stroke-width="0.7087" stroke-linecap="round" stroke-linejoin="round" x1="182.614" y1="59.684" x2="181.775" y2="40.407"/>
	<line fill="#FFFFFF" x1="189.368" y1="59.944" x2="188.529" y2="40.407"/>
	
		<line fill="none" stroke="#231F20" stroke-width="0.7087" stroke-linecap="round" stroke-linejoin="round" x1="189.368" y1="59.944" x2="188.529" y2="40.407"/>
	<line fill="#FFFFFF" x1="187.114" y1="59.944" x2="186.277" y2="40.407"/>
	
		<line fill="none" stroke="#231F20" stroke-width="0.7087" stroke-linecap="round" stroke-linejoin="round" x1="187.114" y1="59.944" x2="186.277" y2="40.407"/>
	<line fill="#FFFFFF" x1="184.864" y1="59.944" x2="184.026" y2="40.407"/>
	
		<line fill="none" stroke="#231F20" stroke-width="0.7087" stroke-linecap="round" stroke-linejoin="round" x1="184.864" y1="59.944" x2="184.026" y2="40.407"/>
	<line fill="#FFFFFF" x1="183.739" y1="58.876" x2="182.902" y2="41.241"/>
	
		<line fill="none" stroke="#231F20" stroke-width="0.7087" stroke-linecap="round" stroke-linejoin="round" x1="183.739" y1="58.876" x2="182.902" y2="41.241"/>
	<line fill="#FFFFFF" x1="185.99" y1="58.876" x2="185.151" y2="41.241"/>
	
		<line fill="none" stroke="#231F20" stroke-width="0.7087" stroke-linecap="round" stroke-linejoin="round" x1="185.99" y1="58.876" x2="185.151" y2="41.241"/>
	<line fill="#FFFFFF" x1="188.239" y1="58.876" x2="187.402" y2="41.241"/>
	
		<line fill="none" stroke="#231F20" stroke-width="0.7087" stroke-linecap="round" stroke-linejoin="round" x1="188.239" y1="58.876" x2="187.402" y2="41.241"/>
	<path fill="#FFFFFF" d="M230.82,34.788c0-0.397-0.514-0.851-1.308-0.851h-9.493h-0.114h-9.493c-0.794,0-1.309,0.453-1.309,0.851
		H230.82z"/>
	<path fill="none" stroke="#231F20" stroke-width="0.7087" d="M230.82,34.788c0-0.397-0.514-0.851-1.308-0.851h-9.493h-0.114h-9.493
		c-0.794,0-1.309,0.453-1.309,0.851H230.82z"/>
	<path fill="#FFFFFF" d="M239.293,37.175v-1.363c0-0.74-0.908-1.024-1.648-1.024h-6.821h-21.72h-6.822
		c-0.738,0-1.646,0.284-1.646,1.024v1.363V61.61h38.56L239.293,37.175z"/>
	<path fill="none" stroke="#231F20" stroke-width="0.7087" d="M239.293,37.175v-1.363c0-0.74-0.908-1.024-1.648-1.024h-6.821h-21.72
		h-6.822c-0.738,0-1.646,0.284-1.646,1.024v1.363V61.61h38.56L239.293,37.175z"/>
	<path fill="#FFFFFF" d="M220.514,55.667h3.302c0-11.981,12.168-15.755,14.012-16.369l1.466-2.122h13.867
		c0.799,0,1.367,0.627,1.367,1.308v3.979l-0.059,16.544h0.059v8.243h-4.036h-61.169h-3.905v-8.144l-0.075-0.1l0.057-16.544v-3.979
		c0-0.681,0.57-1.308,1.364-1.308h13.869l1.627,2.122c1.841,0.614,14.009,4.388,14.009,16.369h3.305H220.514z"/>
	<path fill="none" stroke="#231F20" stroke-width="0.7087" stroke-linecap="round" stroke-linejoin="round" d="M220.514,55.667
		h3.302c0-11.981,12.168-15.755,14.012-16.369l1.466-2.122h13.867c0.799,0,1.367,0.627,1.367,1.308v3.979l-0.059,16.544h0.059v8.243
		h-4.036h-61.169h-3.905v-8.144l-0.075-0.1l0.057-16.544v-3.979c0-0.681,0.57-1.308,1.364-1.308h13.869l1.627,2.122
		c1.841,0.614,14.009,4.388,14.009,16.369h3.305H220.514z"/>
	<path fill="#FFFFFF" d="M220.042,55.645c9.906,0,21.604,2.357,30.004,6.038c1.586,0.694,1.885,1.603,1.885,2.357
		c0,0.756,0.096,3.208,0.096,3.208h-63.97c0,0,0.095-2.452,0.095-3.208c0-0.755,0.3-1.659,1.889-2.357
		C198.815,57.813,209.761,55.645,220.042,55.645"/>
	<path fill="none" stroke="#231F20" stroke-width="0.7087" stroke-linecap="round" stroke-linejoin="round" d="M220.042,55.645
		c9.906,0,21.604,2.357,30.004,6.038c1.586,0.694,1.885,1.603,1.885,2.357c0,0.756,0.096,3.208,0.096,3.208h-63.97
		c0,0,0.095-2.452,0.095-3.208c0-0.755,0.3-1.659,1.889-2.357C198.815,57.813,209.761,55.645,220.042,55.645"/>
	<rect x="240.989" y="40.569" fill="#FFFFFF" width="1.603" height="20.286"/>
	
		<rect x="240.986" y="40.569" fill="none" stroke="#231F20" stroke-width="0.7087" stroke-linecap="round" stroke-linejoin="round" width="1.605" height="20.286"/>
	<rect x="236.647" y="40.569" fill="#FFFFFF" width="1.605" height="20.286"/>
	
		<rect x="236.647" y="40.569" fill="none" stroke="#231F20" stroke-width="0.7087" stroke-linecap="round" stroke-linejoin="round" width="1.603" height="20.286"/>
	<rect x="232.309" y="40.569" fill="#FFFFFF" width="1.603" height="20.286"/>
	
		<rect x="232.309" y="40.569" fill="none" stroke="#231F20" stroke-width="0.7087" stroke-linecap="round" stroke-linejoin="round" width="1.603" height="20.286"/>
	<polygon fill="#FFFFFF" points="229.569,60.855 227.969,60.855 227.969,40.85 229.569,40.569 	"/>
	<polygon fill="none" stroke="#231F20" stroke-width="0.7087" stroke-linecap="round" stroke-linejoin="round" points="
		229.569,60.855 227.969,60.855 227.969,40.85 229.569,40.569 	"/>
	<polygon fill="#FFFFFF" points="225.232,60.855 223.627,60.855 223.627,42.645 225.232,41.985 	"/>
	<polygon fill="none" stroke="#231F20" stroke-width="0.7087" stroke-linecap="round" stroke-linejoin="round" points="
		225.232,60.855 223.627,60.855 223.627,42.645 225.232,41.985 	"/>
	<rect x="219.288" y="43.213" fill="#FFFFFF" width="1.603" height="17.642"/>
	
		<rect x="219.288" y="43.21" fill="none" stroke="#231F20" stroke-width="0.7087" stroke-linecap="round" stroke-linejoin="round" width="1.605" height="17.645"/>
	<polygon fill="#FFFFFF" points="216.552,60.855 214.949,60.855 214.949,41.985 216.552,42.645 	"/>
	<polygon fill="none" stroke="#231F20" stroke-width="0.7087" stroke-linecap="round" stroke-linejoin="round" points="
		216.552,60.855 214.949,60.855 214.949,41.985 216.552,42.645 	"/>
	<polygon fill="#FFFFFF" points="212.213,60.855 210.607,60.855 210.607,40.569 212.213,40.85 	"/>
	<polygon fill="none" stroke="#231F20" stroke-width="0.7087" stroke-linecap="round" stroke-linejoin="round" points="
		212.213,60.855 210.607,60.855 210.607,40.569 212.213,40.85 	"/>
	<rect x="206.266" y="40.569" fill="#FFFFFF" width="1.605" height="20.286"/>
	
		<rect x="206.269" y="40.569" fill="none" stroke="#231F20" stroke-width="0.7087" stroke-linecap="round" stroke-linejoin="round" width="1.603" height="20.286"/>
	<rect x="201.929" y="40.569" fill="#FFFFFF" width="1.601" height="20.286"/>
	
		<rect x="201.929" y="40.569" fill="none" stroke="#231F20" stroke-width="0.7087" stroke-linecap="round" stroke-linejoin="round" width="1.604" height="20.286"/>
	<rect x="197.587" y="40.569" fill="#FFFFFF" width="1.605" height="20.286"/>
	
		<rect x="197.587" y="40.569" fill="none" stroke="#231F20" stroke-width="0.7087" stroke-linecap="round" stroke-linejoin="round" width="1.605" height="20.286"/>
	<path fill="none" stroke="#231F20" stroke-width="0.7087" stroke-linecap="round" stroke-linejoin="round" d="M188.652,68.171
		h-2.927l-2.341,2.146c0,0,0.682,12.594,0.874,14.546c0.199,1.951,0.979,3.025,2.439,4.489c0,3.516,2.346,4.883,3.712,4.883
		l0.694-0.009h57.77l0.585,0.009c1.366,0,3.711-1.367,3.711-4.883c1.462-1.464,2.241-2.538,2.437-4.489
		c0.196-1.952,0.879-14.546,0.879-14.546l-2.344-2.146h-2.925H188.652z"/>
	
		<line fill="none" stroke="#231F20" stroke-width="0.7087" stroke-linecap="round" stroke-linejoin="round" x1="183.381" y1="70.318" x2="256.488" y2="70.318"/>
	
		<line fill="none" stroke="#231F20" stroke-width="0.7087" stroke-linecap="round" stroke-linejoin="round" x1="253.166" y1="89.353" x2="186.701" y2="89.353"/>
	<path fill="none" stroke="#231F20" stroke-width="0.7087" stroke-linecap="round" stroke-linejoin="round" d="M185.573,74.993
		c0,0,0.504,9.275,0.597,10.093c0.147,1.345,0.556,2.388,1.412,3.65h1.642c-0.746-1.043-1.269-2.198-1.415-3.983
		c-0.116-1.38-0.783-9.76-0.783-9.76H185.573z"/>
	<path fill="none" stroke="#231F20" stroke-width="0.7087" stroke-linecap="round" stroke-linejoin="round" d="M204.025,75.265
		c0,0,0.174,11.229,0.174,11.485c0,0.257,0.386,1.884,0.386,1.884h4.753c0,0-0.296-1.155-0.384-1.841
		c-0.083-0.688-0.596-11.574-0.596-11.574L204.025,75.265z"/>
	<path fill="none" stroke="#231F20" stroke-width="0.7087" stroke-linecap="round" stroke-linejoin="round" d="M254.473,74.993
		c0,0-0.508,9.275-0.6,10.093c-0.146,1.345-0.557,2.388-1.415,3.65h-1.636c0.746-1.043,1.269-2.198,1.414-3.983
		c0.114-1.38,0.784-9.76,0.784-9.76H254.473z"/>
	<path fill="none" stroke="#231F20" stroke-width="0.7087" stroke-linecap="round" stroke-linejoin="round" d="M237.489,75.265
		c0,0-0.172,11.229-0.172,11.485c0,0.257-0.386,1.884-0.386,1.884h-4.757c0,0,0.3-1.155,0.386-1.841
		c0.084-0.688,0.6-11.574,0.6-11.574L237.489,75.265z"/>
	<path fill="none" stroke="#231F20" stroke-width="0.7087" d="M191.404,94.217c0.379,17.724,1.544,73.049,1.547,77.549
		c0,5.368,4.877,9.563,8.687,9.563l0.485,2.052h1.366h32.993h1.369l0.487-2.052c3.809,0,8.688-4.195,8.688-9.563
		c0-4.5,1.169-59.828,1.544-77.549"/>
	<line fill="none" stroke="#231F20" stroke-width="0.7087" x1="203.489" y1="181.241" x2="236.486" y2="181.241"/>
	<path fill="#FFFFFF" d="M110.379,59.667H74.54l-0.562-0.889h-0.599l-1.024,1.151l-0.694-1.114h-0.646l-0.911,1.129l-0.771-1.129
		H68.7l-0.85,1.016l-0.933-1.01h-0.682V41.037l0.773-0.92l0.829,0.959h0.691l0.733-0.959l0.914,0.959h0.663l0.673-0.959l0.926,0.959
		h0.795l0.528-0.855h35.778c1.991,5.684-1.149,4.636-0.275,9.286C111.184,49.738,112,50,112,50l-4.944,0.786l2.618,0.7
		C110.894,54.565,108.764,55.985,110.379,59.667"/>
	<path fill="none" stroke="#231F20" stroke-width="0.7087" stroke-linecap="round" stroke-linejoin="round" d="M110.379,59.667
		H74.54l-0.562-0.889h-0.599l-1.024,1.151l-0.694-1.114h-0.646l-0.911,1.129l-0.771-1.129H68.7l-0.85,1.016l-0.933-1.01h-0.682
		V41.037l0.773-0.92l0.829,0.959h0.691l0.733-0.959l0.914,0.959h0.663l0.673-0.959l0.926,0.959h0.795l0.528-0.855h35.778
		c1.991,5.684-1.149,4.636-0.275,9.286C111.184,49.738,112,50,112,50l-4.944,0.786l2.618,0.7
		C110.894,54.565,108.764,55.985,110.379,59.667z"/>
	<line fill="#FFFFFF" x1="73.763" y1="40.379" x2="74.602" y2="59.654"/>
	
		<line fill="none" stroke="#231F20" stroke-width="0.7087" stroke-linecap="round" stroke-linejoin="round" x1="73.763" y1="40.379" x2="74.602" y2="59.654"/>
	<line fill="#FFFFFF" x1="67.009" y1="40.117" x2="67.851" y2="59.654"/>
	
		<line fill="none" stroke="#231F20" stroke-width="0.7087" stroke-linecap="round" stroke-linejoin="round" x1="67.009" y1="40.117" x2="67.851" y2="59.654"/>
	<line fill="#FFFFFF" x1="69.263" y1="40.117" x2="70.104" y2="59.654"/>
	
		<line fill="none" stroke="#231F20" stroke-width="0.7087" stroke-linecap="round" stroke-linejoin="round" x1="69.263" y1="40.117" x2="70.104" y2="59.654"/>
	<line fill="#FFFFFF" x1="71.513" y1="40.117" x2="72.354" y2="59.654"/>
	
		<line fill="none" stroke="#231F20" stroke-width="0.7087" stroke-linecap="round" stroke-linejoin="round" x1="71.513" y1="40.117" x2="72.354" y2="59.654"/>
	<line fill="#FFFFFF" x1="72.639" y1="41.183" x2="73.476" y2="58.818"/>
	
		<line fill="none" stroke="#231F20" stroke-width="0.7087" stroke-linecap="round" stroke-linejoin="round" x1="72.639" y1="41.183" x2="73.476" y2="58.818"/>
	<line fill="#FFFFFF" x1="70.388" y1="41.183" x2="71.229" y2="58.818"/>
	
		<line fill="none" stroke="#231F20" stroke-width="0.7087" stroke-linecap="round" stroke-linejoin="round" x1="70.388" y1="41.183" x2="71.229" y2="58.818"/>
	<line fill="#FFFFFF" x1="68.138" y1="41.183" x2="68.976" y2="58.818"/>
	
		<line fill="none" stroke="#231F20" stroke-width="0.7087" stroke-linecap="round" stroke-linejoin="round" x1="68.138" y1="41.183" x2="68.976" y2="58.818"/>
	<path fill="#FFFFFF" d="M46.54,1.975v30.907l-0.886,0.56v0.603l1.149,1.021l-1.113,0.69v0.648l1.128,0.911l-1.128,0.771v0.63
		l1.016,0.853l-1.009,0.93v0.685H27.911l-0.92-0.776l0.96-0.825v-0.694l-0.96-0.733l0.96-0.914v-0.664l-0.96-0.673l0.96-0.926
		v-0.792l-0.856-0.529V2.812c5.684-1.99,4.638,1.15,9.288,0.275c0.233-1.917,0.493-2.733,0.493-2.733l0.786,4.944l0.7-2.617
		C41.44,1.461,42.859,3.589,46.54,1.975"/>
	<path fill="none" stroke="#231F20" stroke-width="0.7087" stroke-linecap="round" stroke-linejoin="round" d="M46.54,1.975v30.907
		l-0.886,0.56v0.603l1.149,1.021l-1.113,0.69v0.648l1.128,0.911l-1.128,0.771v0.63l1.016,0.853l-1.009,0.93v0.685H27.911
		l-0.92-0.776l0.96-0.825v-0.694l-0.96-0.733l0.96-0.914v-0.664l-0.96-0.673l0.96-0.926v-0.792l-0.856-0.529V2.812
		c5.684-1.99,4.638,1.15,9.288,0.275c0.233-1.917,0.493-2.733,0.493-2.733l0.786,4.944l0.7-2.617
		C41.44,1.461,42.859,3.589,46.54,1.975z"/>
	<line fill="#FFFFFF" x1="27.254" y1="33.656" x2="46.528" y2="32.815"/>
	
		<line fill="none" stroke="#231F20" stroke-width="0.7087" stroke-linecap="round" stroke-linejoin="round" x1="27.254" y1="33.656" x2="46.528" y2="32.815"/>
	<line fill="#FFFFFF" x1="26.994" y1="40.407" x2="46.528" y2="39.569"/>
	
		<line fill="none" stroke="#231F20" stroke-width="0.7087" stroke-linecap="round" stroke-linejoin="round" x1="26.994" y1="40.407" x2="46.528" y2="39.569"/>
	<line fill="#FFFFFF" x1="26.994" y1="38.157" x2="46.528" y2="37.316"/>
	
		<line fill="none" stroke="#231F20" stroke-width="0.7087" stroke-linecap="round" stroke-linejoin="round" x1="26.994" y1="38.157" x2="46.528" y2="37.316"/>
	<line fill="#FFFFFF" x1="26.994" y1="35.903" x2="46.528" y2="35.066"/>
	
		<line fill="none" stroke="#231F20" stroke-width="0.7087" stroke-linecap="round" stroke-linejoin="round" x1="26.994" y1="35.903" x2="46.528" y2="35.066"/>
	<line fill="#FFFFFF" x1="28.059" y1="34.782" x2="45.693" y2="33.94"/>
	
		<line fill="none" stroke="#231F20" stroke-width="0.7087" stroke-linecap="round" stroke-linejoin="round" x1="28.059" y1="34.782" x2="45.693" y2="33.94"/>
	<line fill="#FFFFFF" x1="28.059" y1="37.029" x2="45.693" y2="36.19"/>
	
		<line fill="none" stroke="#231F20" stroke-width="0.7087" stroke-linecap="round" stroke-linejoin="round" x1="28.059" y1="37.029" x2="45.693" y2="36.19"/>
	<line fill="#FFFFFF" x1="28.059" y1="39.282" x2="45.693" y2="38.441"/>
	
		<line fill="none" stroke="#231F20" stroke-width="0.7087" stroke-linecap="round" stroke-linejoin="round" x1="28.059" y1="39.282" x2="45.693" y2="38.441"/>
	<path fill="#EC1C24" d="M94.353,174.144c0,5.101-4.138,9.237-9.237,9.237c-5.103,0-9.236-4.137-9.236-9.237
		c0-5.099,4.133-9.236,9.236-9.236C90.215,164.908,94.353,169.045,94.353,174.144"/>
</g>
<path fill="#FFFFFF" d="M89.873,178.829H88.52l-1.238-2.721H83.36l-1.174,2.721h-1.354l3.972-9.286h0.929L89.873,178.829z
	 M83.878,174.921h2.861l-1.482-3.354L83.878,174.921z"/>
<g>
	<path fill="#EC1C24" d="M274.762,174.144c0,5.101-4.135,9.237-9.233,9.237c-5.103,0-9.24-4.137-9.24-9.237
		c0-5.099,4.138-9.236,9.24-9.236C270.627,164.908,274.762,169.045,274.762,174.144"/>
</g>
<path fill="#FFFFFF" d="M268.196,169.592v1.186h-3.946v2.761h1.636c2.104,0,3.149,1.187,3.149,2.634
	c0,1.471-0.954,2.656-2.981,2.656h-3.133v-9.236H268.196z M264.25,177.643h1.831c1.198,0,1.56-0.75,1.56-1.407
	c0-0.942-0.657-1.511-1.675-1.511h-1.716V177.643z"/>
<polygon fill="#FFFFFF" points="26.994,30.299 21.646,31.183 21.646,32.941 26.994,32.879 46.54,32.879 51.649,32.879 
	51.649,31.116 46.54,30.299 "/>
<polygon fill="none" stroke="#231F20" stroke-width="0.7087" stroke-linecap="round" stroke-linejoin="round" points="
	26.994,32.879 21.646,32.944 21.646,31.18 26.994,30.296 46.54,30.296 51.649,31.119 51.649,32.879 46.54,32.879 "/>
<line fill="none" stroke="#231F20" stroke-width="0.7087" stroke-linecap="round" stroke-linejoin="round" x1="21.646" y1="31.369" x2="51.649" y2="31.369"/>
<line fill="none" stroke="#231F20" stroke-width="0.7087" stroke-linecap="round" stroke-linejoin="round" x1="21.646" y1="32.879" x2="51.649" y2="32.879"/>
<g>
	<path fill="#FFFFFF" d="M2.388,40.196c-0.397,0-0.853,0.511-0.853,1.309v9.49v0.116v9.494c0,0.794,0.456,1.308,0.853,1.308V40.196z
		"/>
	<path fill="none" stroke="#231F20" stroke-width="0.7087" d="M2.388,40.196c-0.397,0-0.853,0.511-0.853,1.309v9.49v0.116v9.494
		c0,0.794,0.456,1.308,0.853,1.308V40.196z"/>
	<path fill="#FFFFFF" d="M56.263,37.175v-1.363c0-0.74-0.908-1.024-1.651-1.024h-6.818H26.077h-6.824
		c-0.737,0-1.645,0.284-1.645,1.024v1.363V61.61h38.557L56.263,37.175z"/>
	<path fill="none" stroke="#231F20" stroke-width="0.7087" d="M56.263,37.175v-1.363c0-0.74-0.908-1.024-1.651-1.024h-6.818H26.077
		h-6.824c-0.737,0-1.645,0.284-1.645,1.024v1.363V61.61h38.557L56.263,37.175z"/>
	<path fill="#FFFFFF" d="M37.484,55.667h3.305c0-11.981,12.168-15.755,14.009-16.369l1.465-2.122h13.871
		c0.795,0,1.364,0.627,1.364,1.308v3.979l-0.056,16.544h0.056v8.243h-4.036H6.292H2.385V38.483c0-0.681,0.554-1.308,1.352-1.308
		h13.869l1.623,2.122c1.844,0.614,14.013,4.388,14.013,16.369h3.302H37.484z"/>
	<path fill="none" stroke="#231F20" stroke-width="0.7087" stroke-linecap="round" stroke-linejoin="round" d="M37.484,55.667h3.305
		c0-11.981,12.168-15.755,14.009-16.369l1.465-2.122h13.871c0.795,0,1.364,0.627,1.364,1.308v3.979l-0.056,16.544h0.056v8.243
		h-4.036H6.292H2.385V38.483c0-0.681,0.554-1.308,1.352-1.308h13.869l1.623,2.122c1.844,0.614,14.013,4.388,14.013,16.369h3.302
		H37.484z"/>
	<path fill="#FFFFFF" d="M37.013,55.645c9.906,0,21.607,2.357,30.002,6.038c1.587,0.694,1.887,1.603,1.887,2.357
		c0,0.756,0.094,3.208,0.094,3.208H5.03c0,0,0.094-2.452,0.094-3.208c0-0.755,0.3-1.659,1.887-2.357
		C15.789,57.813,26.731,55.645,37.013,55.645"/>
	<path fill="none" stroke="#231F20" stroke-width="0.7087" stroke-linecap="round" stroke-linejoin="round" d="M37.013,55.645
		c9.906,0,21.607,2.357,30.002,6.038c1.587,0.694,1.887,1.603,1.887,2.357c0,0.756,0.094,3.208,0.094,3.208H5.03
		c0,0,0.094-2.452,0.094-3.208c0-0.755,0.3-1.659,1.887-2.357C15.789,57.813,26.731,55.645,37.013,55.645"/>
	<rect x="57.956" y="40.569" fill="#FFFFFF" width="1.606" height="20.286"/>
	
		<rect x="57.959" y="40.569" fill="none" stroke="#231F20" stroke-width="0.7087" stroke-linecap="round" stroke-linejoin="round" width="1.603" height="20.286"/>
	<rect x="53.618" y="40.569" fill="#FFFFFF" width="1.602" height="20.286"/>
	
		<rect x="53.618" y="40.569" fill="none" stroke="#231F20" stroke-width="0.7087" stroke-linecap="round" stroke-linejoin="round" width="1.605" height="20.286"/>
	<rect x="49.28" y="40.569" fill="#FFFFFF" width="1.602" height="20.286"/>
	
		<rect x="49.28" y="40.569" fill="none" stroke="#231F20" stroke-width="0.7087" stroke-linecap="round" stroke-linejoin="round" width="1.602" height="20.286"/>
	<polygon fill="#FFFFFF" points="46.543,60.855 44.938,60.855 44.938,40.85 46.543,40.569 	"/>
	<polygon fill="none" stroke="#231F20" stroke-width="0.7087" stroke-linecap="round" stroke-linejoin="round" points="
		46.543,60.855 44.938,60.855 44.938,40.85 46.543,40.569 	"/>
	<polygon fill="#FFFFFF" points="42.202,60.855 40.6,60.855 40.6,42.645 42.202,41.985 	"/>
	<polygon fill="none" stroke="#231F20" stroke-width="0.7087" stroke-linecap="round" stroke-linejoin="round" points="
		42.202,60.855 40.6,60.855 40.6,42.645 42.202,41.985 	"/>
	<rect x="36.261" y="43.213" fill="#FFFFFF" width="1.603" height="17.642"/>
	
		<rect x="36.261" y="43.21" fill="none" stroke="#231F20" stroke-width="0.7087" stroke-linecap="round" stroke-linejoin="round" width="1.603" height="17.645"/>
	<polygon fill="#FFFFFF" points="33.525,60.855 31.919,60.855 31.919,41.985 33.525,42.645 	"/>
	<polygon fill="none" stroke="#231F20" stroke-width="0.7087" stroke-linecap="round" stroke-linejoin="round" points="
		33.525,60.855 31.919,60.855 31.919,41.985 33.525,42.645 	"/>
	<polygon fill="#FFFFFF" points="29.183,60.855 27.582,60.855 27.582,40.569 29.183,40.85 	"/>
	<polygon fill="none" stroke="#231F20" stroke-width="0.7087" stroke-linecap="round" stroke-linejoin="round" points="
		29.183,60.855 27.582,60.855 27.582,40.569 29.183,40.85 	"/>
	<rect x="23.24" y="40.569" fill="#FFFFFF" width="1.604" height="20.286"/>
	
		<rect x="23.24" y="40.569" fill="none" stroke="#231F20" stroke-width="0.7087" stroke-linecap="round" stroke-linejoin="round" width="1.603" height="20.286"/>
	<rect x="18.901" y="40.569" fill="#FFFFFF" width="1.603" height="20.286"/>
	
		<rect x="18.901" y="40.569" fill="none" stroke="#231F20" stroke-width="0.7087" stroke-linecap="round" stroke-linejoin="round" width="1.603" height="20.286"/>
	<rect x="14.56" y="40.569" fill="#FFFFFF" width="1.604" height="20.286"/>
	
		<rect x="14.557" y="40.569" fill="none" stroke="#231F20" stroke-width="0.7087" stroke-linecap="round" stroke-linejoin="round" width="1.608" height="20.286"/>
	<path fill="none" stroke="#231F20" stroke-width="0.7087" stroke-linecap="round" stroke-linejoin="round" d="M5.623,68.171H2.697
		l-2.342,2.146c0,0,0.682,12.594,0.878,14.546c0.192,1.951,0.975,3.025,2.437,4.489c0,3.516,2.344,4.883,3.714,4.883l0.691-0.009
		h57.77l0.584,0.009c1.367,0,3.709-1.367,3.709-4.883c1.465-1.464,2.247-2.538,2.446-4.489c0.193-1.952,0.871-14.546,0.871-14.546
		l-2.341-2.146h-2.926H5.623z"/>
	
		<line fill="none" stroke="#231F20" stroke-width="0.7087" stroke-linecap="round" stroke-linejoin="round" x1="0.354" y1="70.318" x2="73.455" y2="70.318"/>
	
		<line fill="none" stroke="#231F20" stroke-width="0.7087" stroke-linecap="round" stroke-linejoin="round" x1="70.138" y1="89.353" x2="3.672" y2="89.353"/>
	<path fill="none" stroke="#231F20" stroke-width="0.7087" stroke-linecap="round" stroke-linejoin="round" d="M2.544,74.993
		c0,0,0.505,9.275,0.596,10.093c0.15,1.345,0.556,2.388,1.416,3.65h1.639c-0.743-1.043-1.266-2.198-1.418-3.983
		c-0.111-1.38-0.78-9.76-0.78-9.76H2.544z"/>
	<path fill="none" stroke="#231F20" stroke-width="0.7087" stroke-linecap="round" stroke-linejoin="round" d="M20.996,75.265
		c0,0,0.174,11.229,0.174,11.485c0,0.257,0.386,1.884,0.386,1.884h4.757c0,0-0.3-1.155-0.385-1.841
		c-0.086-0.688-0.6-11.574-0.6-11.574L20.996,75.265z"/>
	<path fill="none" stroke="#231F20" stroke-width="0.7087" stroke-linecap="round" stroke-linejoin="round" d="M71.442,74.993
		c0,0-0.504,9.275-0.596,10.093c-0.15,1.345-0.56,2.388-1.415,3.65h-1.64c0.747-1.043,1.269-2.198,1.416-3.983
		c0.116-1.38,0.783-9.76,0.783-9.76H71.442z"/>
	<path fill="none" stroke="#231F20" stroke-width="0.7087" stroke-linecap="round" stroke-linejoin="round" d="M54.462,75.265
		c0,0-0.171,11.229-0.171,11.485c0,0.257-0.388,1.884-0.388,1.884h-4.754c0,0,0.296-1.155,0.382-1.841
		c0.085-0.688,0.599-11.574,0.599-11.574L54.462,75.265z"/>
	<path fill="none" stroke="#231F20" stroke-width="0.7087" d="M8.375,94.217c0.376,17.724,1.544,73.049,1.544,77.549
		c0,5.368,4.883,9.563,8.692,9.563l0.486,2.052h1.367h32.993h1.367l0.486-2.052c3.81,0,8.692-4.195,8.692-9.563
		c0-4.5,1.168-59.828,1.544-77.549"/>
	<line fill="none" stroke="#231F20" stroke-width="0.7087" x1="20.463" y1="181.241" x2="53.459" y2="181.241"/>
</g>
</svg>
