<?xml version="1.0" encoding="utf-8"?>
<!-- Generator: Adobe Illustrator 15.1.0, SVG Export Plug-In  -->
<!DOCTYPE svg PUBLIC "-//W3C//DTD SVG 1.1 Basic//EN" "http://www.w3.org/Graphics/SVG/1.1/DTD/svg11-basic.dtd" [
	<!ENTITY ns_flows "http://ns.adobe.com/Flows/1.0/">
]>
<svg version="1.1" baseProfile="basic"
	 xmlns="http://www.w3.org/2000/svg" xmlns:xlink="http://www.w3.org/1999/xlink" xmlns:a="http://ns.adobe.com/AdobeSVGViewerExtensions/3.0/"
	 x="0px" y="0px" width="200px" height="325px" viewBox="-2.146 -3.846 200 325"
	 overflow="visible" enable-background="new -2.146 -3.846 200 325" xml:space="preserve">
<defs>
</defs>
<polygon fill="#5980C0" points="71.258,8.708 27.172,11.557 26.68,17.896 26.56,52.609 38.844,69.385 44.455,101.523 
	153.729,101.523 160.983,61.088 171.624,52.609 171.741,17.896 163.832,10.521 123.898,9.225 117.417,4.557 83.964,4.299 "/>
<polygon fill="#D8E6ED" points="44.183,102.108 43.737,288.498 48.831,300.901 62.506,306.63 133.451,307.27 148.401,302.814 
	153.492,291.677 154.39,102.108 "/>
<rect x="45.196" y="98.843" fill="#E6E7E8" width="26.813" height="2.717"/>
<rect x="45.193" y="98.843" fill="none" stroke="#231F20" stroke-width="0.4776" width="26.815" height="2.717"/>
<g>
	<polygon fill="#D0D2D3" points="75.848,202.912 75.848,228.611 75.851,228.631 75.851,202.912 	"/>
	<polygon fill="#D0D2D3" points="75.851,202.912 75.851,228.631 76.757,235.172 76.757,202.912 	"/>
	<polygon fill="#D2D4D5" points="76.757,202.912 76.757,235.172 77.667,241.741 77.667,202.912 	"/>
	<polygon fill="#D3D5D6" points="77.667,202.912 77.667,241.741 78.578,248.309 78.578,202.912 	"/>
	<polygon fill="#D5D7D8" points="78.578,202.912 78.578,248.309 79.484,254.849 79.484,202.912 	"/>
	<polygon fill="#D7D8D9" points="79.484,202.912 79.484,254.849 80.394,261.417 80.394,202.912 	"/>
	<polygon fill="#D8DADB" points="80.394,202.912 80.394,261.417 81.304,267.987 81.304,202.912 	"/>
	<polygon fill="#DADBDC" points="81.304,202.912 81.304,267.987 82.21,274.527 82.21,202.912 	"/>
	<polygon fill="#DBDCDD" points="82.21,202.912 82.21,274.527 82.319,275.309 82.319,302.912 83.121,302.912 83.121,202.912 	"/>
	<rect x="83.121" y="202.912" fill="#DDDEDF" width="0.906" height="100"/>
	<rect x="84.027" y="202.912" fill="#DEDFE0" width="0.91" height="100"/>
	<rect x="84.937" y="202.912" fill="#DFE0E1" width="0.906" height="100"/>
	<rect x="85.843" y="202.912" fill="#E1E2E3" width="0.91" height="100"/>
	<rect x="86.753" y="202.912" fill="#E2E3E4" width="0.91" height="100"/>
	<rect x="87.664" y="202.912" fill="#E3E4E5" width="0.906" height="100"/>
	<rect x="88.57" y="202.912" fill="#E4E5E6" width="0.91" height="100"/>
	<rect x="89.48" y="202.912" fill="#E5E6E7" width="0.91" height="100"/>
	<rect x="90.39" y="202.912" fill="#E7E7E8" width="0.906" height="100"/>
	<rect x="91.296" y="202.912" fill="#E8E8E9" width="0.906" height="100"/>
	<rect x="92.203" y="202.912" fill="#E9E9EA" width="0.91" height="100"/>
	<rect x="93.113" y="202.912" fill="#EAEAEB" width="0.91" height="100"/>
	<rect x="94.023" y="202.912" fill="#EBEBEC" width="0.906" height="100"/>
	<rect x="94.929" y="202.912" fill="#EBECED" width="0.91" height="100"/>
	<rect x="95.839" y="202.912" fill="#ECEDEE" width="0.91" height="100"/>
	<rect x="96.75" y="202.912" fill="#EDEDEE" width="0.906" height="100"/>
	<rect x="97.656" y="202.912" fill="#EEEEEF" width="0.91" height="100"/>
	<rect x="98.566" y="202.912" fill="#EEEFF0" width="0.906" height="100"/>
	<rect x="99.472" y="202.912" fill="#EFEFF0" width="0.91" height="100"/>
	<rect x="100.382" y="202.912" fill="#EFF0F1" width="0.906" height="100"/>
	<rect x="101.289" y="202.912" fill="#F0F0F1" width="0.91" height="100"/>
	<rect x="102.199" y="202.912" fill="#F0F0F1" width="0.91" height="100"/>
	<rect x="103.109" y="202.912" fill="#F1F1F2" width="0.906" height="100"/>
	<rect x="104.015" y="202.912" fill="#F1F1F2" width="0.91" height="100"/>
	<rect x="104.925" y="202.912" fill="#F1F1F2" width="0.906" height="100"/>
	<rect x="105.832" y="202.912" fill="#F1F1F2" width="0.312" height="100"/>
	<rect x="106.144" y="202.912" fill="#F1F1F2" width="0.316" height="100"/>
	<rect x="106.46" y="202.912" fill="#F1F1F2" width="0.312" height="100"/>
	<rect x="106.773" y="202.912" fill="#F1F1F2" width="0.312" height="100"/>
	<rect x="107.085" y="202.912" fill="#F1F1F2" width="0.312" height="100"/>
	<rect x="107.398" y="202.912" fill="#F1F1F2" width="0.312" height="100"/>
	<rect x="107.71" y="202.912" fill="#F1F1F2" width="0.312" height="100"/>
	<rect x="108.023" y="202.912" fill="#F0F0F1" width="0.312" height="100"/>
	<rect x="108.335" y="202.912" fill="#F0F0F1" width="0.312" height="100"/>
	<rect x="108.648" y="202.912" fill="#F0F0F1" width="0.312" height="100"/>
	<rect x="108.96" y="202.912" fill="#F0F0F1" width="0.312" height="100"/>
	<rect x="109.273" y="202.912" fill="#EFEFF0" width="0.312" height="100"/>
	<rect x="109.585" y="202.912" fill="#EFEFF0" width="0.312" height="100"/>
	<rect x="109.898" y="202.912" fill="#EFEFF0" width="0.312" height="100"/>
	<rect x="110.21" y="202.912" fill="#EEEEEF" width="0.316" height="100"/>
	<rect x="110.527" y="202.912" fill="#EEEEEF" width="0.312" height="100"/>
	<rect x="110.839" y="202.912" fill="#EDEDEE" width="0.312" height="100"/>
	<rect x="111.152" y="202.912" fill="#EDEDEE" width="0.312" height="100"/>
	<rect x="111.464" y="202.912" fill="#ECECED" width="0.312" height="100"/>
	<rect x="111.777" y="202.912" fill="#EBECED" width="0.312" height="100"/>
	<rect x="112.089" y="202.912" fill="#EBEBEC" width="0.312" height="100"/>
	<rect x="112.402" y="202.912" fill="#EAEAEC" width="0.312" height="100"/>
	<rect x="112.714" y="202.912" fill="#E9EAEB" width="0.316" height="100"/>
	<rect x="113.031" y="202.912" fill="#E9E9EA" width="0.312" height="100"/>
	<rect x="113.343" y="202.912" fill="#E8E8E9" width="0.312" height="100"/>
	<rect x="113.656" y="202.912" fill="#E7E7E8" width="0.312" height="100"/>
	<rect x="113.968" y="202.912" fill="#E6E6E8" width="0.312" height="100"/>
	<rect x="114.281" y="202.912" fill="#E5E5E7" width="0.312" height="100"/>
	<rect x="114.593" y="202.912" fill="#E4E4E6" width="0.312" height="100"/>
	<rect x="114.906" y="202.912" fill="#E3E3E5" width="0.312" height="100"/>
	<rect x="115.218" y="202.912" fill="#E2E2E4" width="0.312" height="100"/>
	<rect x="115.531" y="202.912" fill="#E1E1E3" width="0.312" height="100"/>
	<rect x="115.843" y="202.912" fill="#DFE0E1" width="0.312" height="100"/>
	<polygon fill="#DEDFE0" points="116.156,202.912 116.156,302.912 116.255,302.912 116.255,275.982 116.468,274.423 
		116.468,202.912 	"/>
	<polygon fill="#DDDEDF" points="116.468,202.912 116.468,274.423 116.781,272.135 116.781,202.912 	"/>
	<polygon fill="#DCDCDE" points="116.781,202.912 116.781,272.135 117.097,269.818 117.097,202.912 	"/>
	<polygon fill="#DADBDC" points="117.097,202.912 117.097,269.818 117.41,267.53 117.41,202.912 	"/>
	<polygon fill="#D9DADB" points="117.41,202.912 117.41,267.53 117.722,265.242 117.722,202.912 	"/>
	<polygon fill="#D7D8DA" points="117.722,202.912 117.722,265.242 118.035,262.954 118.035,202.912 	"/>
	<polygon fill="#D6D7D8" points="118.035,202.912 118.035,262.954 118.347,260.666 118.347,202.912 	"/>
	<polygon fill="#D4D5D7" points="118.347,202.912 118.347,260.666 118.66,258.377 118.66,202.912 	"/>
	<polygon fill="#D3D4D5" points="118.66,202.912 118.66,258.377 118.972,256.089 118.972,202.912 	"/>
	<polygon fill="#D1D2D4" points="118.972,202.912 118.972,256.089 119.285,253.801 119.285,202.912 	"/>
	<polygon fill="#CFD0D2" points="119.285,202.912 119.285,253.801 119.601,251.485 119.601,202.912 	"/>
	<polygon fill="#CDCFD0" points="119.601,202.912 119.601,251.485 119.914,249.197 119.914,202.912 	"/>
	<polygon fill="#CBCDCF" points="119.914,202.912 119.914,249.197 120.226,246.909 120.226,202.912 	"/>
	<polygon fill="#CACBCD" points="120.226,202.912 120.226,246.909 120.539,244.621 120.539,202.912 	"/>
	<polygon fill="#C8C9CB" points="120.539,202.912 120.539,244.621 120.851,242.333 120.851,202.912 	"/>
	<polygon fill="#C6C7C9" points="120.851,202.912 120.851,242.333 121.164,240.044 121.164,202.912 	"/>
	<polygon fill="#C4C5C7" points="121.164,202.912 121.164,240.044 121.476,237.756 121.476,202.912 	"/>
	<polygon fill="#C2C3C5" points="121.476,202.912 121.476,237.756 121.789,235.468 121.789,202.912 	"/>
	<polygon fill="#BFC1C3" points="121.789,202.912 121.789,235.468 122.101,233.18 122.101,202.912 	"/>
	<polygon fill="#BDBFC1" points="122.101,202.912 122.101,233.18 122.414,230.892 122.414,202.912 	"/>
	<polygon fill="#BBBDBF" points="122.414,230.892 122.726,228.604 122.726,202.912 122.414,202.912 	"/>
	
		<line fill="none" stroke="#BBBDBF" stroke-width="0" stroke-linecap="round" stroke-linejoin="round" x1="122.726" y1="202.912" x2="122.726" y2="228.604"/>
</g>
<polygon fill="none" stroke="#231F20" stroke-width="0.4776" points="75.848,202.911 122.728,202.911 122.728,228.589 
	116.255,275.976 116.255,302.909 82.322,302.909 82.322,275.306 75.848,228.589 "/>
<g>
	<defs>
		<rect id="SVGID_1_" x="80.441" y="91.01" width="37.787" height="131.525"/>
	</defs>
	<clipPath id="SVGID_2_">
		<use xlink:href="#SVGID_1_"  overflow="visible"/>
	</clipPath>
	
		<linearGradient id="SVGID_3_" gradientUnits="userSpaceOnUse" x1="-117.5288" y1="320.9985" x2="-114.8452" y2="320.9985" gradientTransform="matrix(14.0825 0 0 -14.0825 1735.5315 4677.2456)">
		<stop  offset="0" style="stop-color:#D0D2D3"/>
		<stop  offset="0.1536" style="stop-color:#DCDDDE"/>
		<stop  offset="0.4241" style="stop-color:#ECECED"/>
		<stop  offset="0.6396" style="stop-color:#F1F1F2"/>
		<stop  offset="0.7449" style="stop-color:#EEEEEF"/>
		<stop  offset="0.8376" style="stop-color:#E3E3E5"/>
		<stop  offset="0.9253" style="stop-color:#D1D2D4"/>
		<stop  offset="1" style="stop-color:#BBBDBF"/>
	</linearGradient>
	<rect x="80.441" y="91.01" clip-path="url(#SVGID_2_)" fill="url(#SVGID_3_)" width="37.787" height="131.525"/>
</g>
<rect x="80.441" y="91.009" fill="none" stroke="#231F20" stroke-width="0.4776" width="37.787" height="131.526"/>
<path fill="#B5D0DD" d="M154.392,102.345l-3.281,187.703c0,7.681-6.184,13.106-13.312,13.106h-9.218l-1.023-5.937h-2.87
	l-1.641,6.347h-10.855V293.12h-5.325v10.444h-7.579h-7.579V293.12H86.38v10.444H75.522l-1.636-6.347h-2.87l-1.023,5.937h-9.219
	c-6.779,0-13.316-6.083-13.316-13.106l-3.275-187.634h-9.525v13.922h4.404c0,0,3.483,162.852,3.483,174.118
	c0,11.269,10.242,20.075,18.229,20.075l1.024,4.303h2.87l0.819-3.072h33.799h33.8l0.819,3.072h2.867l1.025-4.303
	c7.987,0,18.231-8.807,18.231-20.075c0-11.267,3.483-174.118,3.483-174.118h4.176v-13.991H154.392z"/>
<path fill="none" stroke="#231F20" stroke-width="0.4776" d="M154.392,102.345l-3.281,187.703c0,7.681-6.184,13.106-13.312,13.106
	h-9.218l-1.023-5.937h-2.87l-1.641,6.347h-10.855V293.12h-5.325v10.444h-7.579h-7.579V293.12H86.38v10.444H75.522l-1.636-6.347
	h-2.87l-1.023,5.937h-9.219c-6.779,0-13.316-6.083-13.316-13.106l-3.275-187.634h-9.525v13.922h4.404
	c0,0,3.483,162.852,3.483,174.118c0,11.269,10.242,20.075,18.229,20.075l1.024,4.303h2.87l0.819-3.072h33.799h33.8l0.819,3.072
	h2.867l1.025-4.303c7.987,0,18.231-8.807,18.231-20.075c0-11.267,3.483-174.118,3.483-174.118h4.176v-13.991H154.392z"/>
<path fill="#2755A5" d="M38.676,126.764l-1.456,0.015c-2.87,0-7.789-2.867-7.789-10.24c-3.071-3.074-4.711-5.327-5.118-9.424
	c-0.411-4.099-1.845-30.522-1.845-30.522l4.916-4.505h6.146v9.894l2.473,1.525l-2.473,1.485v1.229l2.473,1.626l-2.473,1.447v1.361
	l2.473,1.589l-2.473,1.353v23.374h4.917L38.676,126.764z"/>
<path fill="#2755A5" d="M159.9,126.764l1.229,0.015c2.867,0,7.782-2.867,7.782-10.24c3.074-3.074,4.714-5.327,5.123-9.424
	c0.408-4.099,1.845-30.522,1.845-30.522l-4.919-4.505h-6.144v9.894l-2.474,1.525l2.474,1.485v1.229l-2.474,1.626l2.474,1.447v1.361
	l-2.474,1.589l2.474,1.353v23.305h-4.565L159.9,126.764z"/>
<path fill="#2755A5" d="M26.715,69.907h8.199V81.67l1.608,1.001v1.495l-2.319,1.484l2.319,1.532v1.253l-2.395,1.634l2.395,1.473
	v1.308l-2.087,1.195v7.475h10.021V64.063c8.471-3.579,15.031-5.729,22.905-7.279v14.079l2.018,2.82l1.562-2.702V56.308l4.892-0.715
	v41.514h4.202V52.608H67.243H26.715V69.907z"/>
<path fill="#2755A5" d="M153.729,64.062v37.458h10.022v-7.566l-2.089-1.144v-1.196l2.479-1.688l-2.479-1.482v-1.22l2.558-1.585
	l-2.617-1.654v-1.132l1.673-1.062V69.906h8.465V52.609h-32.384v7.038c0,1.909,1.671,4.415,4.412,4.415H153.729z"/>
<path fill="#2755A5" d="M168.88,6.8h-29.106V3.937c0-1.551-1.908-2.147-3.459-2.147h-14.318c0-0.835-1.074-1.79-2.743-1.79H99.331
	h-0.239h-19.92c-1.671,0-2.745,0.955-2.745,1.79H62.11c-1.55,0-3.459,0.596-3.459,2.147V6.8H29.545
	c-1.673,0-2.865,1.311-2.865,2.745v8.35h40.562v7.771L77.5,27.796V11.095h21.711h19.383v86.012h4V54.638l4.893,1.312V70.98
	l2.015,3.122l1.562-3.239V56.784l0.119-4.175V27.796v-9.902h40.561v-8.35C171.744,8.111,170.549,6.8,168.88,6.8"/>
<rect x="80.441" y="91.01" fill="#FFFFFF" width="4.176" height="131.525"/>
<rect x="80.441" y="91.009" fill="none" stroke="#231F20" stroke-width="0.4776" width="4.176" height="131.526"/>
<rect x="114.053" y="91.01" fill="#FFFFFF" width="4.175" height="131.525"/>
<rect x="114.053" y="91.009" fill="none" stroke="#231F20" stroke-width="0.4776" width="4.175" height="131.526"/>
<rect x="56.959" y="98.843" fill="#FFFFFF" width="1.345" height="2.717"/>
<rect x="56.959" y="98.843" fill="none" stroke="#231F20" stroke-width="0.4776" width="1.345" height="2.717"/>
<rect x="50.94" y="98.843" fill="#FFFFFF" width="1.344" height="2.717"/>
<rect x="50.94" y="98.843" fill="none" stroke="#231F20" stroke-width="0.4776" width="1.344" height="2.717"/>
<rect x="53.951" y="98.843" fill="#FFFFFF" width="1.344" height="2.717"/>
<rect x="53.951" y="98.843" fill="none" stroke="#231F20" stroke-width="0.4776" width="1.344" height="2.717"/>
<rect x="59.969" y="98.843" fill="#FFFFFF" width="1.344" height="2.717"/>
<rect x="59.969" y="98.843" fill="none" stroke="#231F20" stroke-width="0.4776" width="1.344" height="2.717"/>
<rect x="69" y="98.843" fill="#FFFFFF" width="1.344" height="2.717"/>
<rect x="69" y="98.843" fill="none" stroke="#231F20" stroke-width="0.4776" width="1.344" height="2.717"/>
<rect x="62.98" y="98.843" fill="#FFFFFF" width="1.345" height="2.717"/>
<rect x="62.98" y="98.843" fill="none" stroke="#231F20" stroke-width="0.4776" width="1.345" height="2.717"/>
<rect x="45.193" y="98.843" fill="#FFFFFF" width="4.081" height="2.717"/>
<rect x="45.193" y="98.843" fill="none" stroke="#231F20" stroke-width="0.4776" width="4.084" height="2.717"/>
<polygon fill="#FFFFFF" points="72.008,98.844 72.008,101.56 76.476,101.56 76.476,114.503 80.136,117.84 80.136,98.844 "/>
<polygon fill="none" stroke="#231F20" stroke-width="0.4776" points="72.008,98.844 72.008,101.56 76.476,101.56 76.476,114.503 
	80.136,117.84 80.136,98.844 "/>
<rect x="65.988" y="98.843" fill="#FFFFFF" width="1.345" height="2.717"/>
<rect x="65.988" y="98.843" fill="none" stroke="#231F20" stroke-width="0.4776" width="1.345" height="2.717"/>
<polygon fill="#E6E7E8" points="76.193,231.118 80.128,231.118 85.279,272.863 81.894,272.863 "/>
<polygon fill="none" stroke="#231F20" stroke-width="0.4776" points="76.193,231.118 80.128,231.118 85.279,272.863 81.894,272.863 
	"/>
<polygon fill="#E6E7E8" points="122.382,231.118 118.449,231.118 113.3,272.863 116.686,272.863 "/>
<polygon fill="none" stroke="#231F20" stroke-width="0.4776" points="122.382,231.118 118.449,231.118 113.3,272.863 
	116.686,272.863 "/>
<rect x="126.564" y="98.843" fill="#E6E7E8" width="26.816" height="2.717"/>
<rect x="126.564" y="98.843" fill="none" stroke="#231F20" stroke-width="0.4776" width="26.816" height="2.717"/>
<rect x="140.269" y="98.843" fill="#FFFFFF" width="1.344" height="2.717"/>
<rect x="140.271" y="98.843" fill="none" stroke="#231F20" stroke-width="0.4776" width="1.344" height="2.717"/>
<rect x="146.29" y="98.843" fill="#FFFFFF" width="1.345" height="2.717"/>
<rect x="146.29" y="98.843" fill="none" stroke="#231F20" stroke-width="0.4776" width="1.345" height="2.717"/>
<rect x="143.278" y="98.843" fill="#FFFFFF" width="1.345" height="2.717"/>
<rect x="143.278" y="98.843" fill="none" stroke="#231F20" stroke-width="0.4776" width="1.345" height="2.717"/>
<rect x="137.257" y="98.843" fill="#FFFFFF" width="1.344" height="2.717"/>
<rect x="137.26" y="98.843" fill="none" stroke="#231F20" stroke-width="0.4776" width="1.344" height="2.717"/>
<rect x="128.234" y="98.843" fill="#FFFFFF" width="1.344" height="2.717"/>
<rect x="128.229" y="98.843" fill="none" stroke="#231F20" stroke-width="0.4776" width="1.345" height="2.717"/>
<rect x="134.25" y="98.843" fill="#FFFFFF" width="1.345" height="2.717"/>
<rect x="134.25" y="98.843" fill="none" stroke="#231F20" stroke-width="0.4776" width="1.345" height="2.717"/>
<rect x="149.299" y="98.843" fill="#FFFFFF" width="4.081" height="2.717"/>
<rect x="149.302" y="98.843" fill="none" stroke="#231F20" stroke-width="0.4776" width="4.078" height="2.717"/>
<polygon fill="#FFFFFF" points="126.564,98.844 126.564,101.56 122.099,101.56 122.099,114.503 118.437,117.84 118.437,98.844 "/>
<polygon fill="none" stroke="#231F20" stroke-width="0.4776" points="126.564,98.844 126.564,101.56 122.099,101.56 
	122.099,114.503 118.437,117.84 118.437,98.844 "/>
<rect x="131.239" y="98.843" fill="#FFFFFF" width="1.35" height="2.717"/>
<rect x="131.239" y="98.843" fill="none" stroke="#231F20" stroke-width="0.4776" width="1.347" height="2.717"/>
<polygon fill="#FFFFFF" points="82.852,253.204 82.552,250.775 78.875,250.775 79.208,253.204 "/>
<polygon fill="none" stroke="#231F20" stroke-width="0.4776" points="82.852,253.204 82.552,250.775 78.875,250.775 79.208,253.204 
	"/>
<polygon fill="#FFFFFF" points="82.169,247.682 81.872,245.254 78.125,245.254 78.457,247.682 "/>
<polygon fill="none" stroke="#231F20" stroke-width="0.4776" points="82.169,247.682 81.872,245.254 78.125,245.254 78.457,247.682 
	"/>
<polygon fill="#FFFFFF" points="81.488,242.161 81.19,239.738 77.369,239.738 77.699,242.161 "/>
<polygon fill="none" stroke="#231F20" stroke-width="0.4776" points="81.488,242.161 81.19,239.738 77.369,239.738 77.699,242.161 
	"/>
<polygon fill="#FFFFFF" points="76.948,236.64 80.807,236.64 80.508,234.212 76.617,234.212 "/>
<polygon fill="none" stroke="#231F20" stroke-width="0.4776" points="76.948,236.64 80.807,236.64 80.508,234.212 76.617,234.212 
	"/>
<polygon fill="#FFFFFF" points="80.125,231.118 79.815,228.589 79.815,202.911 75.848,202.911 75.848,228.589 76.193,231.118 "/>
<polygon fill="none" stroke="#231F20" stroke-width="0.4776" points="80.125,231.118 79.815,228.589 79.815,202.911 75.848,202.911 
	75.848,228.589 76.193,231.118 "/>
<polygon fill="#FFFFFF" points="83.532,258.723 83.231,256.298 79.633,256.298 79.962,258.723 "/>
<polygon fill="none" stroke="#231F20" stroke-width="0.4776" points="83.532,258.723 83.231,256.298 79.633,256.298 79.962,258.723 
	"/>
<polygon fill="#FFFFFF" points="81.894,272.863 82.322,275.982 82.322,302.909 85.659,302.909 85.659,275.982 85.275,272.863 "/>
<polygon fill="none" stroke="#231F20" stroke-width="0.4776" points="81.894,272.863 82.322,275.982 82.322,302.909 85.659,302.909 
	85.659,275.982 85.275,272.863 "/>
<polygon fill="#FFFFFF" points="84.592,267.34 81.143,267.34 81.471,269.766 84.893,269.766 "/>
<polygon fill="none" stroke="#231F20" stroke-width="0.4776" points="84.592,267.34 81.143,267.34 81.471,269.766 84.893,269.766 
	"/>
<polygon fill="#FFFFFF" points="84.214,264.246 83.916,261.821 80.385,261.821 80.715,264.246 "/>
<polygon fill="none" stroke="#231F20" stroke-width="0.4776" points="84.214,264.246 83.916,261.821 80.385,261.821 80.715,264.246 
	"/>
<polygon fill="#FFFFFF" points="115.726,253.204 116.025,250.775 119.696,250.775 119.365,253.204 "/>
<polygon fill="none" stroke="#231F20" stroke-width="0.4776" points="115.726,253.204 116.025,250.775 119.696,250.775 
	119.365,253.204 "/>
<polygon fill="#FFFFFF" points="116.408,247.682 116.707,245.254 120.451,245.254 120.121,247.682 "/>
<polygon fill="none" stroke="#231F20" stroke-width="0.4776" points="116.408,247.682 116.707,245.254 120.451,245.254 
	120.121,247.682 "/>
<polygon fill="#FFFFFF" points="117.087,242.161 117.384,239.738 121.202,239.738 120.877,242.161 "/>
<polygon fill="none" stroke="#231F20" stroke-width="0.4776" points="117.087,242.161 117.384,239.738 121.202,239.738 
	120.877,242.161 "/>
<polygon fill="#FFFFFF" points="121.627,236.64 117.767,236.64 118.069,234.212 121.959,234.212 "/>
<polygon fill="none" stroke="#231F20" stroke-width="0.4776" points="121.627,236.64 117.767,236.64 118.069,234.212 
	121.959,234.212 "/>
<polygon fill="#FFFFFF" points="118.451,231.118 118.761,228.589 118.761,202.911 122.728,202.911 122.728,228.589 122.384,231.118 
	"/>
<polygon fill="none" stroke="#231F20" stroke-width="0.4776" points="118.451,231.118 118.761,228.589 118.761,202.911 
	122.728,202.911 122.728,228.589 122.384,231.118 "/>
<polygon fill="#FFFFFF" points="115.045,258.723 115.343,256.298 118.944,256.298 118.614,258.723 "/>
<polygon fill="none" stroke="#231F20" stroke-width="0.4776" points="115.045,258.723 115.343,256.298 118.944,256.298 
	118.614,258.723 "/>
<polygon fill="#FFFFFF" points="116.679,272.863 116.257,275.982 116.257,302.909 112.917,302.909 112.917,275.982 113.3,272.863 
	"/>
<polygon fill="none" stroke="#231F20" stroke-width="0.4776" points="116.679,272.863 116.257,275.982 116.257,302.909 
	112.917,302.909 112.917,275.982 113.3,272.863 "/>
<polygon fill="#FFFFFF" points="113.98,267.34 117.436,267.34 117.101,269.766 113.682,269.766 "/>
<polygon fill="none" stroke="#231F20" stroke-width="0.4776" points="113.98,267.34 117.436,267.34 117.101,269.766 
	113.682,269.766 "/>
<polygon fill="#FFFFFF" points="114.364,264.246 114.663,261.821 118.189,261.821 117.86,264.246 "/>
<polygon fill="none" stroke="#231F20" stroke-width="0.4776" points="114.364,264.246 114.663,261.821 118.189,261.821 
	117.86,264.246 "/>
<polygon fill="#FAAF40" points="59.163,21.691 57.535,23.857 55.905,21.691 54.286,23.857 52.658,21.691 51.037,23.857 
	49.413,21.691 47.79,23.857 46.172,21.691 44.551,23.857 42.923,21.691 41.304,23.857 39.68,21.691 38.061,23.857 36.437,21.691 
	34.816,23.857 33.194,21.691 31.575,23.857 29.953,21.691 28.334,23.857 26.715,21.691 26.715,17.906 59.163,17.906 "/>
<polygon fill="#FAAF40" points="59.163,48.832 57.535,46.666 55.905,48.832 54.286,46.666 52.658,48.832 51.037,46.666 
	49.413,48.832 47.79,46.666 46.172,48.832 44.551,46.666 42.923,48.832 41.304,46.666 39.68,48.832 38.061,46.666 36.437,48.832 
	34.816,46.666 33.194,48.832 31.575,46.666 29.953,48.832 28.334,46.666 26.715,48.832 26.715,52.617 59.163,52.617 "/>
<polygon fill="#FAAF40" points="171.744,21.681 170.115,23.845 168.487,21.681 166.866,23.845 165.241,21.681 163.616,23.845 
	161.997,21.681 160.371,23.845 158.752,21.681 157.129,23.845 155.508,21.681 153.884,23.845 152.259,21.681 150.641,23.845 
	149.015,21.681 147.396,23.845 145.777,21.681 144.155,23.845 142.533,21.681 140.913,23.845 139.296,21.681 139.296,17.894 
	171.744,17.894 "/>
<polygon fill="#FAAF40" points="171.737,48.832 170.105,46.666 168.479,48.832 166.858,46.666 165.232,48.832 163.608,46.666 
	161.989,48.832 160.361,46.666 158.745,48.832 157.123,46.666 155.5,48.832 153.876,46.666 152.254,48.832 150.632,46.666 
	149.01,48.832 147.389,46.666 145.769,48.832 144.146,46.666 142.527,48.832 140.906,46.666 139.289,48.832 139.289,52.617 
	171.737,52.617 "/>
<polygon fill="#B5D0DD" points="178.886,24.185 159.985,35.098 178.886,46.012 178.886,39.552 195.747,39.552 195.747,30.642 
	178.886,30.642 "/>
<polygon fill="#B5D0DD" points="18.903,24.185 0,35.098 18.903,46.012 18.903,39.552 35.763,39.552 35.763,30.642 18.903,30.642 "/>
<path fill="#231F20" d="M42.45,104.101c0,1.39-1.126,2.514-2.519,2.514c-1.385,0-2.512-1.124-2.512-2.514
	c0-1.391,1.127-2.517,2.512-2.517C41.323,101.584,42.45,102.71,42.45,104.101"/>
<path fill="none" stroke="#231F20" stroke-width="0.4776" d="M42.45,104.101c0,1.39-1.126,2.514-2.519,2.514
	c-1.385,0-2.512-1.124-2.512-2.514c0-1.391,1.127-2.517,2.512-2.517C41.323,101.584,42.45,102.71,42.45,104.101z"/>
<path fill="#231F20" d="M161.228,104.312c0,1.387-1.126,2.514-2.518,2.514c-1.386,0-2.514-1.127-2.514-2.514
	c0-1.389,1.128-2.518,2.514-2.518C160.102,101.794,161.228,102.923,161.228,104.312"/>
<path fill="none" stroke="#231F20" stroke-width="0.4776" d="M161.228,104.312c0,1.387-1.126,2.514-2.518,2.514
	c-1.386,0-2.514-1.127-2.514-2.514c0-1.389,1.128-2.518,2.514-2.518C160.102,101.794,161.228,102.923,161.228,104.312z"/>
<path fill="#FFFFFF" d="M51.839,291.715c2.852,1.875,5.583,3.861,8.589,5.474c1.667,0.896,3.32,2.45,5.105,3.094
	c4.952,1.782,3.986-6.054,3.986-8.904c0-5.894-3.788-13.502-10.949-12.236c-1.395,0.246-2.61,1.057-4.032,1.222
	c-1.12,0.13-2.892-0.399-3.937,0.346c-0.973,0.696-1.541,2.662-1.864,3.804C47.851,287.659,49.178,289.96,51.839,291.715"/>
<path fill="#FFFFFF" d="M79.366,273.827c-1.396-5.317-9.444,2.564-11.299,4.348c-1.558,1.497-1.699,3.095-0.496,5.018
	c1.622,2.602,3.48,5.027,5.255,7.543c0.955,1.357,2.237,3.778,4.264,3.392c2.889-0.562,4.04-7.474,4.432-9.975
	c0.266-1.703-0.221-2.95-0.651-4.345C80.27,277.862,79.882,275.789,79.366,273.827"/>
<path fill="#FFFFFF" d="M68.164,266.48c-0.007-0.384-0.075-0.78-0.223-1.179c-0.756-2.038-2.844-2.807-4.737-3.466
	c-1.408-0.496-2.734-0.737-4.345-0.731c-1.077,0.005-2.19-0.095-3.265,0c-2.433,0.215-8.119,1.907-7.568,5.332
	c0.191,1.197,1.245,1.984,2.034,2.893c1.023,1.182,1.831,2.458,2.683,3.773c0.989,1.527,2.239,3.27,4.016,4.085
	c1.14,0.524,3.518,1.324,4.822,0.356c1.368-1.021,2.724-3.63,3.604-5.092C66.264,270.657,68.204,268.666,68.164,266.48"/>
<path fill="#FFFFFF" d="M76.185,250.947c-1.845-3.124-8.023,1.111-8.855,3.447c-0.995,2.811,0.451,5.84,0.862,8.596
	c0.329,2.215,1.088,13.296,5.468,10.33c1.867-1.263,1.949-4.48,2.698-6.315c0.787-1.937,1.156-3.956,1.798-5.896
	c0.514-1.551,1.189-3.077,0.66-4.738c-0.283-0.886-1.046-1.734-1.516-2.564C76.797,252.902,76.719,251.847,76.185,250.947"/>
<path fill="#FFFFFF" d="M58.423,242.839c-1.451-1.957-2.13-5.075-5.156-3.513c-1.819,0.938-3.008,3.1-4.208,4.624
	c-1.057,1.348-1.753,2.526-1.895,4.256c-0.298,3.656,1.783,8.84,4.604,11.058c1.181,0.928,3.386,1.896,4.725,0.853
	c1.22-0.959,0.848-3.581,0.989-5.04C57.894,250.883,61.21,246.599,58.423,242.839"/>
<path fill="#FFFFFF" d="M58.649,250.92c-0.999,2.899,1.407,7.067,3.825,8.434c3.745,2.106,4.018-2.37,4.846-5.116
	c0.7-2.336,1.724-4.672,2.047-7.106c0.131-0.995,0.404-4.051-0.019-4.942c-1.347-2.85-4.477,0.497-5.408,1.909
	C62.454,246.343,59.529,248.366,58.649,250.92"/>
<path fill="#FFFFFF" d="M58.163,236.167c0.479,1.834,6.425,1.801,8.172,2.482c1.601,0.624,3.527,1.506,5.036,2.41
	c1.281,0.767,2.226,1.926,3.968,1.614c2.117-3.204,0.518-7.555-1.814-10.495c-1.18-1.489-3.812-1.239-5.678-1.517
	c-2.438-0.37-3.595-0.511-5.534,0.874C61.003,232.461,57.614,234.056,58.163,236.167"/>
<path fill="#FFFFFF" d="M50.253,223.257c-0.815,0.456-3.025,1.512-3.532,2.456c-1.48,2.759,2.71,7.976,4.185,9.941
	c0.969,1.293,2.073,2.866,4.001,2.414c1.237-0.285,2.178-2.383,2.994-3.347c1.541-1.83,3.044-3.717,4.449-5.545
	c1.123-1.466,2.001-2.668,1.667-4.665c-0.285-1.703-1.775-4.969-2.884-6.268c-1.604-1.876-4.22,0.011-5.488,1.323
	C53.854,221.419,52.53,221.981,50.253,223.257"/>
<path fill="#FFFFFF" d="M56.617,215.19c-0.812,2.181,2.987,2.005,4.481,2.779c1.929,1.006,3.014,3.068,4.079,4.819
	c0.933,1.537,1.81,4.549,3.997,4.787c3.895,0.417,3.769-7.879,5.153-10.151c0.302-0.496,1.478-1.13,1.188-1.895
	c-0.34-0.912-2.251-0.663-2.955-0.724c-2.71-0.23-4.241-1.494-6.312-2.93C63.635,210.067,57.765,212.123,56.617,215.19"/>
<path fill="#FFFFFF" d="M51.195,209.283c-1.081,0.99-3.466,1.085-4.277,2.175c-1.459,1.963,3.139,6.94,4.361,7.992
	c1.949,1.686,1.742,1.064,2.986-1.044c0.763-1.282,1.473-2.653,2.236-4.011c1.653-2.942,4.703-6.391,3.663-10.3
	C59.036,199.86,52.216,208.344,51.195,209.283"/>
<path fill="#FFFFFF" d="M46.299,200.914c0.605,2.446,5.11,6.107,7.743,4.99c3.748-1.598,2.237-11.303,2.237-14.45
	c0-1.388,0.595-4.522-0.9-5.309C50.602,183.659,45.57,197.96,46.299,200.914"/>
<path fill="#FFFFFF" d="M58.283,200.269c2.899,3.312,5.234,8.646,8.859,11.25c2.064,1.486,5.142,2.582,6.042-0.782
	c0.312-1.158,0.012-2.461,0.37-3.696c0.494-1.72,1.301-3.341,2.13-4.921c2.142-4.104-1.677-5.436-5.055-6.588
	c-3.089-1.054-6.548-3.155-9.878-2.533c-1.689,0.321-3.013,1.87-3.65,3.382C56.261,198.377,56.996,198.806,58.283,200.269"/>
<path fill="#FFFFFF" d="M63.196,185.597c-0.742,1.555-1.054,4.153,0.178,5.486c1.414,1.539,4.907,1.922,6.782,2.414
	c1.884,0.497,3.557,0.761,5.547,0.238c1.815-0.474,3.548-1.191,3.962-2.963c0.642-2.729-1.46-5.638-2.232-8.084
	c-0.679-2.138-0.806-7.239-3.843-7.361C68.888,175.139,64.902,182.032,63.196,185.597"/>
<path fill="#FFFFFF" d="M47.872,179.113c-0.84,0.611-1.345,1.032-1.397,2.054c-0.099,2.017,2.277,2.418,3.873,2.73
	c1.992,0.391,4.104,0.907,6.003,1.42c2.055,0.556,3.451,1.646,5.18,0.194c2.106-1.767,4.948-5.776,1.693-7.636
	c-1.739-0.996-3.565-1.699-5.547-2.021c-1.848-0.303-2.935,0.285-4.692,0.731C50.95,177.094,49.606,177.838,47.872,179.113"/>
<path fill="#FFFFFF" d="M49.347,162.743c-0.829,0.844-1.685,1.787-2.241,2.844c-0.613,1.153-1.014,2.027-0.862,3.4
	c0.422,3.782,4.292,6.11,7.648,6.646c2.018,0.319,2.662-1.754,2.995-3.448c0.649-3.296,0.325-6.646,1.216-9.902
	c0.412-1.509,1.437-4.892,0.065-6.131c-0.851-0.774-1.587-0.606-2.525-0.184C52.811,157.253,51.542,160.504,49.347,162.743"/>
<path fill="#FFFFFF" d="M60.414,167.283c-0.939,0.625-1.967,1.06-2.248,2.207c-0.326,1.347,0.756,2.206,1.334,3.279
	c0.671,1.265,1.061,2.202,2.129,3.162c1.771,1.58,2.3,1.787,4.804,0.571c3.956-1.923,8.578-3.093,12.719-4.377
	c0.212-1.688-5.655-2.885-6.811-3.317c-1.586-0.592-2.399-1.525-3.454-2.772c-0.76-0.896-2.227-2.262-3.558-2.08
	c-0.766,0.104-1.232,0.755-1.807,1.211C62.556,165.942,61.445,166.593,60.414,167.283"/>
<path fill="#FFFFFF" d="M69.236,163.201c-0.185,0.571-0.655,1.533-0.565,2.144c0.15,0.991,0.827,0.961,1.88,1.322
	c1.722,0.59,6.937,2.854,8.53,0.853c0.657-0.817,0.21-3.101,0.21-4.114v-8.196c0-1.728-0.121-3.21-0.966-4.649
	c-0.78-1.318-2.327-1.262-3.492-0.474c-1.048,0.712-1.071,1.581-1.406,2.702C72.375,156.328,70.381,159.647,69.236,163.201"/>
<path fill="#FFFFFF" d="M57.458,152.573c-0.29,1.925,0.983,3.648,1.841,5.269c0.879,1.67,1.467,4.398,2.819,5.69
	c1.077,1.026,2.315-0.37,3.425-1.177c1.325-0.964,2.857-1.701,4.114-2.67c0.409-0.32,0.972-0.702,1.255-1.14
	c1.087-1.686-1.379-2.202-2.612-3.036c-2.165-1.46-4.319-2.708-6.195-4.484C60.302,149.321,57.866,149.888,57.458,152.573"/>
<path fill="#FFFFFF" d="M46.714,148.167c-1.181,0.438-1.456,1.012-1.573,2.266c-0.193,2.053,0.878,3.516,2.007,5.095
	c0.617,0.87,1.037,3.579,2.528,3.26c0.585-0.122,1.241-1.322,1.551-1.712c0.75-0.942,1.667-1.604,2.536-2.465
	c1.924-1.917,3.81-4.042,5.89-5.812c1.147-0.978,2.591-1.838,2.664-3.521c0.161-3.58-4.383-0.877-5.639-0.275
	C53.519,146.515,49.983,146.956,46.714,148.167"/>
<path fill="#FFFFFF" d="M47.683,133.994c-0.709,0.527-1.785,1.169-2.071,2.068c-0.45,1.413,0.977,3.155,1.327,4.543
	c0.599,2.363,1.638,5.804,4.556,5.653c1.455-0.075,2.927-1.281,3.932-2.394c1.098-1.223,1.52-2.929,2.506-4.151
	c0.324-0.399,1.142-0.684,1.294-1.206c0.346-1.22-2.801-5.541-3.758-6.572c-0.486-0.521-0.88-1.022-1.324-1.547
	C52.14,128.017,49.145,132.897,47.683,133.994"/>
<path fill="#FFFFFF" d="M61.893,140.138c-0.653,0.624-0.647,0.673-0.532,1.595c0.263,2.057,1.706,3.816,2.062,5.928
	c0.236,1.4,0.672,2.783,1.135,4.057c0.565,1.543,1.096,1.802,2.899,1.817c2.742,0.023,6.358,0.363,5.989-3.401
	c-0.294-2.986-2.979-5.251-4.107-7.886c-0.456-1.064-1.525-3.428-2.625-3.98C65.278,137.542,62.88,139.198,61.893,140.138"/>
<path fill="#FFFFFF" d="M64.611,135.649c-0.286,0.508-0.396,0.817-0.152,1.237c0.318,0.548,1.855,1.004,2.376,1.352
	c0.836,0.558,1.626,1.009,2.479,1.56c1.816,1.168,3.554,2.517,5.423,3.479c1.341,0.693,2.146,0.507,3.145-0.593
	c0.607-0.667,1.451-1.606,1.829-2.424c0.881-1.892-0.79-4.077-2.3-5.26c-1.608-1.265-3.646-2.183-5.146-3.565
	c-1.149-1.062-1.039-0.816-2.201,0.176C68.473,132.968,65.677,133.75,64.611,135.649"/>
<path fill="#FFFFFF" d="M49.483,119.188c-0.974,1.455-1.746,2.987-2.563,4.487c-0.49,0.898-1.32,1.847-1.514,2.983
	c-0.306,1.798,1.196,1.848,2.752,2.215c2.078,0.493,4.237,0.745,6.296,1.136c1.721,0.323,2.208,0.127,2.169-1.684
	c-0.06-2.856-1.714-5.921-2.415-8.731c-0.249-0.989-0.228-3.126-1.119-3.795C51.798,114.837,50.104,118.257,49.483,119.188"/>
<path fill="#FFFFFF" d="M57.222,125.738c-0.143,1.553,0.171,3.102,0.242,4.629c0.053,1.151-0.424,3.062,0.263,4.047
	c1.373,1.973,4.955-0.583,6.351-1.396c2.397-1.404,5.656-1.986,8.294-2.624c0.524-0.127,1.801-0.146,2.034-0.685
	c0.443-1.012-1.165-1.671-1.809-1.955c-2.078-0.911-4.493-1.031-6.438-2.169c-1.409-0.82-2.887-2.038-4.524-2.231
	C59.537,123.104,57.454,123.111,57.222,125.738"/>
<path fill="#FFFFFF" d="M69.493,118.626c-0.641,0.728-1.693,1.684-1.997,2.571c-0.4,1.175-0.068,2.383,0.876,3.204
	c1.563,1.357,3.644,2.451,5.46,3.489c1.118,0.638,3.59,2.922,5.103,2.267c2.656-1.146-1.488-7.463-1.951-8.796
	c-0.471-1.352-0.419-2.82-0.684-4.213c-0.202-1.061-0.788-2.902-1.763-3.416C72.191,112.5,70.6,117.364,69.493,118.626"/>
<path fill="#FFFFFF" d="M57.679,111.037c-2.001-3.005-6.319-2.877-9.075-1.262c-0.853,0.502-2.36,0.983-3.081,1.551
	c-2.017,1.602,2.287,2.035,3.229,2.246c1.86,0.422,3.923,0.986,5.673,1.705c0.834,0.341,1.548,1.014,2.319,1.301
	C60.129,117.844,58.722,112.604,57.679,111.037"/>
<path fill="#FFFFFF" d="M61.29,113.386c-1.342,0.993-1.924,2.351-2.944,3.596c-0.734,0.891-2.062,1.632-2.175,2.885
	c-0.285,3.177,3.824,3.249,5.968,3.247c1.183,0,2.412,0.164,3.429-0.41c1.744-0.983,2.01-4.059,2.563-5.932
	c0.499-1.696,2.148-4.565,1.44-6.461c-0.661-1.757-2.715-0.928-3.882-0.246c-0.777,0.456-1.202,1.058-1.836,1.634
	C63.095,112.388,62.113,112.775,61.29,113.386"/>
<path fill="#FFFFFF" d="M117.237,289.41c-0.355,1.791,0.027,2.577,1.646,3.481c3.86,2.159,8.331,3.127,12.347,4.992
	c0.933,0.435,2.588,1.661,3.761,1.121c2.062-0.959-0.539-4.633-1.182-5.763c-1.065-1.877-2.488-3.481-3.648-5.335
	c-1.086-1.736-1.278-3.226-1.98-5.122c-0.606-1.645-0.785-3.414-2.673-3.703c-2.801-0.426-3.601,0.601-4.527,2.782
	C119.861,284.508,117.825,286.47,117.237,289.41"/>
<path fill="#FFFFFF" d="M139.6,290.466c-0.523,2.16-1.36,3.66-2.316,5.567c-0.568,1.143-1.96,3.423-1.648,4.727
	c0.454,1.913,4.718,1.227,6.255,1.219c1.919-0.012,3.121-1.968,4.29-3.666c1.177-1.714,2.025-3.816,2.991-5.646
	c0.882-1.661,1.338-2.695,0.485-4.466c-1.207-2.519-2.167-5.328-3.925-7.493c-2.109-2.604-2.406-0.303-3.024,1.746
	c-0.354,1.178-1.059,1.713-1.622,2.731C140.237,286.714,140.011,288.769,139.6,290.466"/>
<path fill="#FFFFFF" d="M119.465,275.769c2.353,1.453,5.209,2.335,7.669,3.724c0.75,0.423,2.346,1.445,3.215,0.817
	c1.257-0.912-0.049-4.771-0.349-5.753c-0.602-1.987-1.407-3.818-2.132-5.781c-0.452-1.227-0.728-2.93-1.349-4.056
	c-0.832-1.516-2.771-0.068-3.926,0.464c-2.332,1.072-3.257,2.779-3.937,5.063C117.898,272.8,116.733,274.082,119.465,275.769"/>
<path fill="#FFFFFF" d="M131.416,280.871c-1.175,1.092-3.212,1.91-2.395,3.67c0.984,2.117,5.479,3.516,7.49,3.657
	c1.556,0.11,1.446-0.338,2.133-1.523c0.903-1.567,2.047-3.054,2.977-4.666c1.324-2.287,4.003-5.188,3.815-7.883
	c0.013,0.209-2.533-0.312-2.732-0.324c-1.138-0.068-1.921,0.221-2.887,0.786c-1.474,0.861-2.939,1.263-4.279,2.358
	C134.058,278.163,132.819,279.58,131.416,280.871"/>
<path fill="#FFFFFF" d="M145.431,272.529c0.483,1.673,0.606,3.365,1.922,4.517c1.396,1.228,1.845,0.435,2.333-1.195
	c0.851-2.846,1.771-5.7,0.477-8.851c-0.322-0.792-0.668-1.421-0.887-2.18c-0.085-0.289-0.153-1.385-0.325-1.562
	c-1.493-1.557-4.47,0.204-5.003,1.803C142.935,268.09,144.639,269.794,145.431,272.529"/>
<path fill="#FFFFFF" d="M131.39,272.473c1.801,0.698,3.494,1.036,5.279,1.796c1.654,0.702,1.975,0.371,3.056-1.239
	c1.99-2.965,3.117-5.989,4.507-9.127c0.549-1.245,1.498-2.082,1.221-3.62c-0.457-2.556-3.597-3.146-5.899-2.744
	C135.172,258.312,123.362,269.353,131.39,272.473"/>
<path fill="#FFFFFF" d="M120.663,255.647c-0.724,0.949-1.706,2.045-1.764,3.253c-0.086,1.905,1.518,2.882,3.095,3.388
	c1.404,0.452,2.369,0.823,3.58,1.589c3.278,2.068,5.573-0.066,7.769-2.766c1.515-1.863,9.979-12.685,5.637-13.858
	c-1.554-0.42-3.344,0-4.947-0.272c-0.992-0.172-2.222-0.702-3.297-0.58c-1.359,0.161-1.96,1.25-2.871,2.152
	C125.484,250.92,122.708,252.964,120.663,255.647"/>
<path fill="#FFFFFF" d="M140.589,241.707c-0.363,0.917-0.439,1.918-0.421,2.931c0.021,1.158,0.417,2.158,0.54,3.28
	c0.181,1.579,0,3.266,0,4.854c0,3.957,2.979,5.536,6.074,7.314c1.352,0.776,2.311,1.831,3.312,0.068
	c0.707-1.246,0.635-2.672,0.64-4.103c0.01-3.26-1.095-6.478-2.088-9.589c-0.594-1.852-1.078-3.844-1.707-5.65
	C145.831,237.628,141.521,239.375,140.589,241.707"/>
<path fill="#FFFFFF" d="M123.17,240.017c-0.637,0.875-1.088,1.541-1.684,2.439c-0.308,0.478-0.051,0.88-0.792,0.915
	c0.6,1.579,1.839,7.653,5.01,5.886c1.039-0.585,1.892-1.668,2.971-2.33c1.169-0.713,2.17-1.42,3.21-2.337
	c1.42-1.251,3.53-2.696,3.081-4.779c-0.344-1.6-1.823-3.119-2.653-4.486C129.715,231.036,124.755,237.846,123.17,240.017"/>
<path fill="#FFFFFF" d="M148.38,229.246c-2.646,0.575-4.224,3.403-6.665,3.983c-2.589,0.612-5.408-0.898-7.416,1.67
	c-0.843,1.081-0.328,2.477,1.064,3.116c0.867,0.396,1.965,0.279,2.903,0.296c1.406,0.017,2.685,0.393,4.087,0.545
	c1.295,0.136,2.84,0.087,4.02,0.598c0.822,0.354,2.573,1.981,3.689,1.205c0.702-0.486,1.527-2.869,1.622-3.705
	c0.183-1.671-0.503-2.908-0.922-4.427C150.357,231.047,150.601,228.764,148.38,229.246"/>
<path fill="#FFFFFF" d="M129.905,219.135c-1.817-2.359-4.426,0.372-5.289,2.359c-0.295,0.681-0.636,1.33-0.866,2.013
	c-0.398,1.157-0.817,2.411-0.783,3.697c0.055,2.239,0.798,5.896,3.12,6.495c1.108,0.286,2.489,0.14,3.688,0.14
	c1.852,0,3.964,0.284,5.785-0.029c0.996-0.171,3.894-1.111,4.215-2.138c0.854-2.743-4.081-3.502-5.407-4.731
	c-0.942-0.871-1.242-2.449-1.839-3.493C131.755,222.089,130.879,220.398,129.905,219.135"/>
<path fill="#FFFFFF" d="M136.443,224.303c-0.471,0.97-1.004,2.206-0.99,3.28c1.048,0.477,2.6,0.755,3.749,0.949
	c2.587,0.43,5.461,0.813,8.121,0.561c1.467-0.137,4.162-0.327,4.226-2.302c0.054-1.649-3.096-3.681-4.199-4.448
	c-1.208-0.836-1.911-1.756-3.016-2.707c-1.078-0.928-3.26-1.606-4.619-0.842c-0.903,0.512-0.903,1.255-1.322,2.085
	C137.803,222.043,137.014,223.114,136.443,224.303"/>
<path fill="#FFFFFF" d="M122.992,216.847c0.811,1.518,4.589,0.483,5.904,0.716c2.421,0.436,4.515,2.005,6.806,2.768
	c5.917,1.971,0.023-7.154-1.229-8.637c-0.967-1.147-3.427-3.689-5.005-3.732C127.429,207.912,121.95,214.884,122.992,216.847"/>
<path fill="#FFFFFF" d="M135.322,208.48c-0.53,1.338-0.428,3.031,0.148,4.299c1.143,2.51,3.186,2.822,5.321,3.642
	c1.602,0.616,2.187,2.249,3.485,3.123c2.391,1.602,6.785-3.978,7.445-6.405c0.646-2.399-2.324-5.087-3.412-7.064
	c-1.215-2.218-1.394-4.93-3.002-6.929c-1.971-2.457-4.067,0.461-5.124,2.198C138.712,203.759,136.367,205.827,135.322,208.48"/>
<path fill="#FFFFFF" d="M119.135,198.62c-1.615,2.532,0.638,2.691,2.796,3.646c3.332,1.478,6.701,6.054,10.801,5.919
	c1.823-0.063,3.519-2.393,3.59-4.305c0.121-3.018-3.713-4.386-5.747-6.095c-1.736-1.456-2.3-4.229-4.095-5.518
	C124.013,190.49,120.358,196.697,119.135,198.62"/>
<path fill="#FFFFFF" d="M152.291,186.145c-0.14-2.631-2.052-1.311-3.48-0.681c-1.015,0.444-2.147,0.729-3.182,1.197
	c-2.024,0.925-4.271,1.451-6.249,2.44c-2.415,1.213-4.913,1.905-7.374,2.966c-1.268,0.544-3.481,1.252-2.86,3.018
	c1.049,2.987,6.194,3.104,8.836,3.104c2.023,0,4.057-0.047,6.067,0.071c1.482,0.089,2.943,0.997,4.282,1.038
	c2.09,0.063,2.964-3.262,3.523-4.774c0.455-1.237,0.437-2.514,0.437-3.829C152.291,189.184,152.369,187.653,152.291,186.145"/>
<path fill="#FFFFFF" d="M118.715,186.627c-0.27,2.86,4.1,3.696,6.197,4.329c1.025,0.308,1.827,0.701,2.881,0.76
	c1.808,0.099,4.606,0.383,6.28-0.461c3.941-1.993-4.832-10.991-6.289-12.96c-0.582-0.776-0.766-2.239-2.13-1.755
	c-1.071,0.377-1.763,1.738-2.651,2.43c-0.992,0.765-2.094,1.426-2.626,2.615c-0.364,0.829-0.101,1.773-0.448,2.605
	C119.579,185.046,118.808,185.623,118.715,186.627"/>
<path fill="#FFFFFF" d="M152.477,177.01c0-2.45,0.61-4.957-1.02-7.101c-0.865-1.135-1.793-2.174-3.054-0.661
	c-0.858,1.037-0.919,2.673-1.283,3.915c-0.765,2.61-2.094,4.8-3.534,7.075c-0.538,0.843-2.67,3.165-2.129,4.262
	c0.566,1.147,3.266,0.81,4.359,1.089c1.357,0.352,1.665,0.243,2.759-0.535c1.639-1.169,3.257-2.362,3.788-4.485
	C152.64,179.477,152.477,178.159,152.477,177.01"/>
<path fill="#FFFFFF" d="M132.931,176.822c-0.681,0.448-1.774,1.175-2.08,1.944c-0.288,0.739-0.256,2.433,0.048,3.171
	c0.294,0.723,1.167,1.629,1.668,2.269c0.677,0.859,1.074,1.785,1.926,2.549c0.653,0.583,2.31,2.255,3.37,2.189
	c0.878-0.051,1.939-2.738,2.379-3.431c0.852-1.336,1.366-2.821,1.924-4.345c1.035-2.832-0.294-5.274-2.449-7.004
	C137.43,172.335,134.729,175.642,132.931,176.822"/>
<path fill="#FFFFFF" d="M120.342,171.841c-0.346,0.568-0.326,1.014-0.533,1.562c-0.218,0.571-1.512,1.61-1.171,2.293
	c0.508,1.021,4.683,0.479,5.523,0.479c1.278,0,2.321,0.044,3.556,0.373c1.154,0.314,3.26,1.199,4.361,0.57
	c1.749-1.001-1.464-3.583-2.132-4.554c-1.041-1.509-2.221-3.089-3.777-4.104c-0.871-0.571-2.511-0.979-3.538-0.744
	C121.153,168.059,121.09,170.627,120.342,171.841"/>
<path fill="#FFFFFF" d="M141.836,164.185c-1.957,1.069-3.815,2.384-5.73,3.554c-1.206,0.74-3.335,2.089-2.512,3.976
	c0.593,1.35,2.708,1.21,3.829,1.633c1.567,0.587,3.044,0.785,4.936,0.785c2.527,0,2.965-0.435,3.967-2.84
	c0.857-2.047,2.504-3.63,3.594-5.508c0.385-0.661,2.781-4.043,2.484-4.701C150.905,157.779,143.297,163.384,141.836,164.185"/>
<path fill="#FFFFFF" d="M139.5,162.999c-1.713-5.647-7.374-3.678-11.469-2.429c-0.764,0.231-3.108,0.487-3.625,1.193
	c-0.906,1.235,0.672,3.272,1.254,4.095c1.516,2.133,2.317,5.032,5.591,4.16c2.02-0.535,4.888-2.715,6.665-3.967
	C138.971,165.309,139.994,164.626,139.5,162.999"/>
<path fill="#FFFFFF" d="M118.815,159.498c0.54,1.883,8.011,1.202,10.026,0.957c0.825-0.102,1.224-0.293,1.962-0.701
	c1.646-0.906,4.567-2.366,5.64-3.812c2.122-2.864-3.219-3.79-5.053-4.406c-2.99-1.011-6.988-3.829-9.21-0.061
	c-0.755,1.284-0.859,2.725-1.664,4.007C119.822,156.594,118.406,158.074,118.815,159.498"/>
<path fill="#FFFFFF" d="M147.988,143.291c-1.603-1.86-2.57-5.212-5.631-4.348c-2.281,0.645-3.954,2.942-5.615,4.49
	c-1.292,1.202-3.149,2.184-2.497,4.268c0.464,1.469,1.611,2.695,2.111,4.2c0.721,2.163,2.985,14.57,6.911,10.339
	c2.436-2.629,3.959-6.187,6.277-8.909c1.015-1.192,2.592-2.613,3.227-4.061C153.743,147.057,149.563,145.118,147.988,143.291"/>
<path fill="#FFFFFF" d="M120.516,140.007c-0.496,1.128-1.584,1.866-1.823,3.148c-0.413,2.205,2.421,2.403,3.979,3.382
	c1.907,1.197,4.233,2.318,6.245,3.265c2.562,1.2,5.102-2.789,5.847-5.099c1.094-3.389-2.068-5.571-3.578-8.235
	c-0.919-1.621-0.671-3.876-1.921-5.317c-0.679-0.787-3.132-2.181-4.147-1.401c-1.127,0.865-1.002,3.759-2.013,5.028
	c-0.519,0.65-1.172,1.065-1.602,1.811C120.875,137.682,121.007,138.897,120.516,140.007"/>
<path fill="#FFFFFF" d="M138.7,133.097c-0.783,0.659-1.486,1.095-1.272,2.226c0.279,1.478,2.428,1.682,3.653,2.188
	c2.927,1.209,6.077,2.512,9.387,3.025c4.037,0.622,2.875-3.617,1.701-5.844c-1.154-2.19-3.051-5.216-5.792-5.474
	C143.593,128.961,140.669,131.443,138.7,133.097"/>
<path fill="#FFFFFF" d="M130.591,131.194c-0.679,1.785,0.406,2.741,1.649,4.107c0.739,0.817,1.995,3.037,3.193,3.325
	c1.831,0.44,1.194-1.658,1.507-2.99c0.651-2.768,2.27-5.143,2.782-8.078c0.315-1.802,0.847-4.104,0.284-5.942
	c-0.401-1.306-2.026-3.203-3.338-1.73c-0.777,0.873-0.798,2.084-1.223,3.107C134.221,125.955,131.734,128.19,130.591,131.194"/>
<path fill="#FFFFFF" d="M119.809,123.555c-0.839,1.181-1.505,1.971-1.471,3.494c0.037,1.605,0.632,4.041,1.908,5.055
	c1.473,1.173,2.223,0.083,3.145-1.066c1.426-1.768,3.406-2.68,5.302-4.021c1.065-0.758,3.505-1.556,4.159-2.791
	c0.925-1.749-0.976-3.144-2.221-3.86c-2.026-1.162-4.503-2.464-6.767-1.048C122.456,120.204,120.768,122.206,119.809,123.555"/>
<path fill="#FFFFFF" d="M140.449,121.615c0.725,1.712,2.268,3.249,3.255,4.841c2.33,3.757,4.668,1.511,7.567-0.765
	c4.883-3.832-0.579-7.624-2.683-11.521c-0.723-1.336-0.549-1.896-2.316-1.269C143.479,113.895,139.083,118.389,140.449,121.615"/>
<path fill="#FFFFFF" d="M123.316,111.658c-1.072,1.58-0.015,2.742,1.055,3.622c1.575,1.302,3.576,1.863,5.439,2.869
	c1.476,0.794,2.827,1.685,4.454,0.993c0.795-0.337,1.26-1.001,1.994-1.36c1.393-0.675,3.006-0.656,4.436-1.105
	c1.575-0.493,2.387-1.628,3.072-3.041c1.083-2.219,1.752-5.299-1.383-5.83c-3.473-0.585-6.981,0.36-10.358,1.067
	C129.494,109.405,124.957,109.244,123.316,111.658"/>
</svg>
